<?xml version="1.0" encoding="UTF-8" standalone="no"?>
<!-- Created with Inkscape (http://www.inkscape.org/) -->

<svg
   xmlns:dc="http://purl.org/dc/elements/1.1/"
   xmlns:cc="http://creativecommons.org/ns#"
   xmlns:rdf="http://www.w3.org/1999/02/22-rdf-syntax-ns#"
   xmlns:svg="http://www.w3.org/2000/svg"
   xmlns="http://www.w3.org/2000/svg"
   xmlns:xlink="http://www.w3.org/1999/xlink"
   xmlns:sodipodi="http://sodipodi.sourceforge.net/DTD/sodipodi-0.dtd"
   xmlns:inkscape="http://www.inkscape.org/namespaces/inkscape"
   width="500"
   height="500"
   viewBox="0 0 132.29167 132.29167"
   version="1.1"
   id="svg8"
   inkscape:version="0.92.3 (2405546, 2018-03-11)"
   sodipodi:docname="optimization.svg">
  <defs
     id="defs2">
    <style
       id="style5586">
   g {

    
   }

   g *{
      transform-box: fill-box;
    transform-origin: 50% 50%;
   }

svg {
   cursor: pointer;
}

svg *{
      -webkit-animation-fill-mode: forwards;
   -moz-animation-fill-mode: forwards;
   -ms-animation-fill-mode: forwards;
}


svg:hover #smallCog,svg:hover #bigCog,svg:hover #middleCog {
   -webkit-animation-name: rotationCog;
   -webkit-animation-duration: 1.5s;
   -webkit-animation-iteration-count: 1;
   -webkit-animation-timing-function: linear;

   -moz-animation-name: rotationCog;
   -moz-animation-duration: 1.5s;
   -moz-animation-iteration-count: 1;
   -moz-animation-timing-function: linear;

   -ms-animation-name: rotationCog;
   -ms-animation-duration: 1.5s;
   -ms-animation-iteration-count: 1;
   -ms-animation-timing-function: linear;
}

svg:hover #middleCog {
   -webkit-animation-direction: reverse;
   -moz-animation-direction: reverse;
   -ms-animation-direction: reverse;
}


@-webkit-keyframes rotationCog {
    0% {
        transform: rotate(0deg);
    }

    100% {
        transform: rotate(360deg);
    }
}

svg:hover #cursorMinuteur {
   -webkit-animation-name: rotationCursor;
   -webkit-animation-duration: 1.5s;
   -webkit-animation-iteration-count: 1;
   -webkit-animation-timing-function: linear;

   -moz-animation-name: rotationCursor;
   -moz-animation-duration: 1.5s;
   -moz-animation-iteration-count: 1;
   -moz-animation-timing-function: linear;

   -ms-animation-name: rotationCursor;
   -ms-animation-duration: 1.5s;
   -ms-animation-iteration-count: 1;
   -ms-animation-timing-function: linear;
}

@-webkit-keyframes rotationCursor {
    0% {
        transform: rotate(-90deg);
    }
    19.99% {
       transform: rotate(-90deg);
    }
    20% {
       transform: rotate(-45deg);
    }
    39.99% {
       transform: rotate(-45deg);
    }
    40% {
       transform: rotate(0deg);
    }
    59.99% {
       transform: rotate(0deg);
    }
    60% {
       transform: rotate(45deg);
    }
    79.99% {
       transform: rotate(45deg);
    }
    80% {
       transform: rotate(90deg);
    }
    99.99%  {
       transform: rotate(90deg);
    }
    100% {
       transform: rotate(0deg);
    }
}

svg #topLeftButton, svg #topRightButton, 
svg #middleLeftButton, svg #middleMiddleButton, 
svg #bottomMiddleButton, svg #bottomRightButton {
   fill: red;
}


svg:hover #topLeftButton, svg:hover #topRightButton, 
svg:hover #middleLeftButton, svg:hover #middleMiddleButton, 
svg:hover #bottomMiddleButton, svg:hover #bottomRightButton ,
svg:hover #topMiddleButton, svg:hover #middleRightButton, 
svg:hover #bottomLeftButton
{
   -webkit-animation-duration: 1.5s;
   -webkit-animation-iteration-count: 1;
   -webkit-animation-timing-function: linear;

   -moz-animation-duration: 1.5s;
   -moz-animation-iteration-count: 1;
   -moz-animation-timing-function: linear;

   -ms-animation-duration: 1.5s;
   -ms-animation-iteration-count: 1;
   -ms-animation-timing-function: linear;
}

svg:hover #topLeftButton, svg:hover #topRightButton, 
svg:hover #middleLeftButton, svg:hover #middleMiddleButton, 
svg:hover #bottomMiddleButton, svg:hover #bottomRightButton {
   -webkit-animation-name: blinkButton1;
   -moz-animation-name: blinkButton1;
   -ms-animation-name: blinkButton1;
}

svg #topMiddleButton, svg #middleRightButton, 
svg #bottomLeftButton {
   fill: green;
}

svg:hover #topMiddleButton, svg:hover #middleRightButton, 
svg:hover #bottomLeftButton {
   -webkit-animation-name: blinkButton2;
   -moz-animation-name: blinkButton2;
   -ms-animation-name: blinkButton2;
}

@-webkit-keyframes blinkButton1 {
    0% {
        fill: red;
    }
   24.99% {
      fill: red;
   }
   25% {
      fill: green;
   }
   49.99% {
      fill: green;
   }
   50% {
      fill: red;
   }
   74.99% {
      fill: red;
   }
   75% {
      fill: red;
   }
   99.99% {
      fill: red;
   }
   100% {
      fill: green;
   }

}

@-webkit-keyframes blinkButton2 {
    0% {
        fill: green;
    }
   24.99% {
      fill: green;
   }
   25% {
      fill: green;
   }
   49.99% {
      fill: green;
   }
   50% {
      fill: red;
   }
   74.99% {
      fill: red;
   }
   75% {
      fill: green;
   }
   99.99% {
      fill: green;
   }
   100% {
      fill: green;
   }
}

svg:hover #topCursor, svg:hover #middleCursor,svg:hover #bottomCursor {
   -webkit-animation-duration: 1.5s;
   -webkit-animation-iteration-count: 1;
   -webkit-animation-timing-function: linear;

   -moz-animation-duration: 1.5s;
   -moz-animation-iteration-count: 1;
   -moz-animation-timing-function: linear;

   -ms-animation-duration: 1.5s;
   -ms-animation-iteration-count: 1;
   -ms-animation-timing-function: linear;
}


svg:hover #topCursor , svg:hover #middleCursor, svg:hover #bottomCursor {
   -webkit-animation-name: topCursor;
   -moz-animation-name: topCursor;
   -ms-animation-name: topCursor;
}

svg:hover #middleCursor {
      -webkit-animation-direction: reverse;
   -moz-animation-direction: reverse;
   -ms-animation-direction: reverse;
}

@-webkit-keyframes topCursor {
    0% {
       transform: 0px;
    }
    
   25% {
        transform: translate(10px);
   }
   50% {
      transform: translate(0px);
   }
   75% {
      transform: translate(-10px);
   }   
   100% {
      transform: translate(0px);
   }
}


    </style>
    <clipPath
       clipPathUnits="userSpaceOnUse"
       id="clipPath1385">
      <g
         inkscape:label="Calque 1"
         inkscape:groupmode="layer"
         id="layer1"
         transform="translate(0,-164.70833)"
         style="display:inline">
        <path
           inkscape:connector-curvature="0"
           id="middleRightTrait"
           d="m 37.339157,261.2902 v -1.79539 H 53.68663 70.034099 v 1.79539 1.79538 H 53.68663 37.339157 Z"
           style="fill:#000000;fill-opacity:1;stroke:none;stroke-width:0;stroke-linecap:round;stroke-linejoin:round;stroke-miterlimit:4;stroke-dasharray:none;stroke-opacity:1" />
        <path
           inkscape:connector-curvature="0"
           id="middleCursor"
           d="m 28.645706,270.73269 c -1.073605,-0.33336 -2.169961,-1.23366 -2.651317,-2.1772 -0.349406,-0.68489 -0.372492,-1.13518 -0.372492,-7.26529 0,-6.13012 0.02309,-6.5804 0.372492,-7.26529 0.687006,-1.34665 2.578226,-2.4676 4.163223,-2.4676 0.979863,0 2.481588,0.5903 3.236293,1.27213 1.43346,1.29505 1.393915,1.05501 1.393915,8.46076 0,7.40574 0.03955,7.16571 -1.393915,8.46075 -0.788059,0.71196 -2.291043,1.28228 -3.317843,1.25897 -0.31895,-0.007 -0.96261,-0.132 -1.430356,-0.27723 z"
           style="fill:#000000;fill-opacity:1;stroke:none;stroke-width:0;stroke-linecap:round;stroke-linejoin:round;stroke-miterlimit:4;stroke-dasharray:none;stroke-opacity:1" />
        <path
           inkscape:connector-curvature="0"
           id="topCursor"
           d="m 52.009831,251.84681 c -1.004309,-0.358 -1.999809,-1.20315 -2.467637,-2.09496 -0.368885,-0.70319 -0.394404,-1.10012 -0.445863,-6.93505 -0.03682,-4.17529 0.01503,-6.45058 0.159354,-6.99256 0.273036,-1.02534 1.672709,-2.42034 2.75328,-2.74408 1.134182,-0.33981 2.86929,-0.28401 3.760727,0.12094 0.933572,0.42409 1.947987,1.41306 2.290662,2.23319 0.198956,0.47618 0.256484,2.0581 0.256484,7.05305 0,5.96526 -0.02654,6.4908 -0.360669,7.14037 -1.050298,2.04189 -3.685059,3.02515 -5.946338,2.2191 z"
           style="fill:#000000;fill-opacity:1;stroke:none;stroke-width:0;stroke-linecap:round;stroke-linejoin:round;stroke-miterlimit:4;stroke-dasharray:none;stroke-opacity:1" />
        <path
           inkscape:connector-curvature="0"
           id="topRightTrait                                                                                                                                            "
           d="M 60.962672,242.48588 V 240.596 h 4.535712 4.535715 v 1.88988 1.88988 h -4.535715 -4.535712 z"
           style="fill:#000000;fill-opacity:1;stroke:none;stroke-width:0;stroke-linecap:round;stroke-linejoin:round;stroke-miterlimit:4;stroke-dasharray:none;stroke-opacity:1" />
        <path
           inkscape:connector-curvature="0"
           id="topLeftTrait"
           d="M 13.715647,242.48588 V 240.596 h 16.441965 16.441963 v 1.88988 1.88988 H 30.157612 13.715647 Z"
           style="fill:#000000;fill-opacity:1;stroke:none;stroke-width:0;stroke-linecap:round;stroke-linejoin:round;stroke-miterlimit:4;stroke-dasharray:none;stroke-opacity:1" />
        <path
           inkscape:connector-curvature="0"
           id="middleLeftTrait"
           d="m 13.715647,261.2902 v -1.79539 h 4.630209 4.630208 v 1.79539 1.79538 h -4.630208 -4.630209 z"
           style="fill:#000000;fill-opacity:1;stroke:none;stroke-width:0;stroke-linecap:round;stroke-linejoin:round;stroke-miterlimit:4;stroke-dasharray:none;stroke-opacity:1" />
        <path
           inkscape:connector-curvature="0"
           id="bottomCursor"
           d="m 51.897219,288.72949 c -0.945412,-0.30125 -2.380745,-1.76384 -2.631885,-2.68185 -0.287803,-1.05204 -0.282514,-12.48047 0.0062,-13.34271 1.02248,-3.05389 5.450385,-4.03742 7.819239,-1.73682 1.219486,1.18435 1.22609,1.22942 1.22609,8.37045 0,4.99372 -0.05753,6.57543 -0.256485,7.05159 -0.342675,0.82013 -1.35709,1.8091 -2.290662,2.23319 -0.861777,0.39148 -2.809507,0.44487 -3.872473,0.10615 z"
           style="fill:#000000;fill-opacity:1;stroke:none;stroke-width:0;stroke-linecap:round;stroke-linejoin:round;stroke-miterlimit:4;stroke-dasharray:none;stroke-opacity:1" />
        <clipPath
           id="bottomTraitClip">
          <path
             inkscape:connector-curvature="0"
             id="bottomLeftTrait"
             d="m 13.715647,279.33856 v -1.88988 h 16.441965 16.441963 v 1.88988 1.88988 H 30.157612 13.715647 Z"
             style="fill:#000000;fill-opacity:1;stroke:none;stroke-width:0;stroke-linecap:round;stroke-linejoin:round;stroke-miterlimit:4;stroke-dasharray:none;stroke-opacity:1" />
          <path
             inkscape:connector-curvature="0"
             id="bottomRightTrait"
             d="m 60.962672,279.33856 v -1.88988 h 4.535712 4.535715 v 1.88988 1.88988 h -4.535715 -4.535712 z"
             style="fill:#000000;fill-opacity:1;stroke:none;stroke-width:0;stroke-linecap:round;stroke-linejoin:round;stroke-miterlimit:4;stroke-dasharray:none;stroke-opacity:1" />
        </clipPath>
        <rect
           y="177.9375"
           x="74.272324"
           height="55.373516"
           width="55.373516"
           id="windowCog"
           style="fill:#ececec;fill-opacity:1;stroke:none;stroke-width:0;stroke-linecap:round;stroke-linejoin:round;stroke-miterlimit:4;stroke-dasharray:none;stroke-opacity:1" />
        <path
           inkscape:connector-curvature="0"
           id="bigCog"
           d="m 89.817419,221.90014 c -0.06186,-0.5457 -0.169241,-1.63913 -0.238628,-2.42983 l -0.126158,-1.43765 -1.25205,-0.51148 c -0.688627,-0.28132 -1.384124,-0.55415 -1.545549,-0.60628 -0.179109,-0.0579 -1.021006,0.50302 -2.160118,1.43906 l -1.866618,1.53387 -1.754282,-1.74699 c -1.477121,-1.47098 -1.71824,-1.79348 -1.526151,-2.04127 0.125472,-0.16186 0.816792,-1.00779 1.536267,-1.87985 1.280035,-1.55151 1.302962,-1.59819 1.067324,-2.17337 -0.132447,-0.32329 -0.409702,-1.02328 -0.616124,-1.55552 l -0.375312,-0.96773 -1.446964,-0.127 c -0.795829,-0.0699 -1.893447,-0.17761 -2.43915,-0.23947 l -0.992188,-0.11247 v -2.49815 -2.49814 l 1.559152,-0.12575 c 0.857533,-0.0692 1.950162,-0.17567 2.428063,-0.23669 l 0.868911,-0.11094 0.612704,-1.49855 0.612704,-1.49856 -0.463257,-0.60703 c -0.254791,-0.33387 -0.946758,-1.19676 -1.537704,-1.91752 l -1.074447,-1.31049 1.747964,-1.75526 c 1.502674,-1.50895 1.789011,-1.72069 2.040464,-1.50887 3.090876,2.6037 3.535046,2.91251 3.89529,2.70823 0.201278,-0.11414 0.876227,-0.39268 1.499888,-0.61899 l 1.133928,-0.41146 0.263951,-2.4793 0.263951,-2.4793 h 2.492483 2.492487 l 0.232272,2.4096 c 0.127751,1.32528 0.290595,2.45932 0.361868,2.5201 0.07128,0.0608 0.554818,0.26239 1.074536,0.44802 0.519719,0.18563 1.128954,0.45197 1.353855,0.59187 0.374954,0.23324 0.508902,0.17248 1.612818,-0.7315 0.662151,-0.54222 1.547531,-1.25758 1.967511,-1.58968 l 0.76362,-0.60382 1.73454,1.74178 1.73454,1.74178 -1.51239,1.85784 c -0.83181,1.0218 -1.51207,1.91296 -1.51169,1.98034 2.7e-4,0.0674 0.24857,0.76035 0.55154,1.53992 l 0.55083,1.41741 1.66908,0.22177 c 0.91799,0.12198 2.03052,0.22828 2.47228,0.23624 l 0.8032,0.0145 v 2.55134 2.55134 l -0.51972,0.0178 c -0.28584,0.01 -1.39837,0.11607 -2.47229,0.23623 l -1.95258,0.21847 -0.34634,0.94494 c -0.19048,0.51972 -0.45386,1.2122 -0.58528,1.53884 -0.23373,0.58095 -0.21079,0.62832 1.05284,2.17336 0.71049,0.86871 1.40365,1.71109 1.54037,1.87197 0.21424,0.25209 0.006,0.53423 -1.50881,2.04258 l -1.75739,1.75008 -1.87532,-1.53023 c -1.077552,-0.87926 -1.995929,-1.49298 -2.158814,-1.44265 -0.272587,0.0842 -2.704629,1.0778 -2.774307,1.13342 -0.01868,0.0149 -0.139007,1.11032 -0.267375,2.43423 l -0.233394,2.40712 h -2.494182 -2.49418 z m 4.748324,-11.02561 c 3.56985,-1.77893 3.538132,-6.74449 -0.05521,-8.64254 -1.02244,-0.54006 -3.087907,-0.55833 -4.152093,-0.0367 -2.76337,1.35446 -3.603865,4.87649 -1.745243,7.3133 1.368584,1.79434 3.918623,2.37951 5.952544,1.36596 z"
           style="fill:#000000;fill-opacity:1;stroke:none;stroke-width:0;stroke-linecap:round;stroke-linejoin:round;stroke-miterlimit:4;stroke-dasharray:none;stroke-opacity:1" />
        <path
           inkscape:connector-curvature="0"
           id="smallCog"
           d="m 114.35181,225.77174 c -0.31183,-0.0274 -0.84336,-0.0951 -1.18118,-0.1503 l -0.61421,-0.1004 v -1.31052 -1.31051 l -0.77895,-0.39739 -0.77895,-0.39739 -1.02519,0.70608 c -0.57548,0.39634 -1.0895,0.63116 -1.1718,0.53529 -0.0806,-0.0939 -0.42888,-0.53837 -0.77389,-0.98764 l -0.62729,-0.81685 0.89232,-0.90595 0.89232,-0.90594 -0.24221,-0.82854 c -0.28736,-0.98298 -0.3573,-1.0411 -1.44997,-1.20495 -1.18804,-0.17816 -1.31348,-0.25054 -1.24739,-0.71974 0.0322,-0.22867 0.11078,-0.82584 0.17459,-1.32704 l 0.11602,-0.91128 1.20698,0.12926 1.20697,0.12926 0.4193,-0.86305 0.4193,-0.86305 -0.67129,-1.08138 -0.67128,-1.08138 0.96852,-0.83093 0.96853,-0.83094 0.85343,0.96241 0.85343,0.96241 0.89471,-0.30486 c 0.49209,-0.16767 0.89471,-0.42024 0.89471,-0.56127 0,-0.14103 0.0921,-0.68583 0.20465,-1.21066 0.19551,-0.91165 0.23241,-0.95424 0.82682,-0.95424 0.3422,0 0.88794,0.0531 1.21276,0.11812 l 0.59059,0.11811 v 1.30175 1.30175 l 0.83277,0.40459 0.83277,0.40459 0.97513,-0.71581 c 0.53632,-0.3937 1.03941,-0.64065 1.11798,-0.54879 0.48726,0.56974 1.34403,1.75285 1.34403,1.85597 0,0.0675 -0.38884,0.53834 -0.86409,1.04642 -0.73644,0.78731 -0.83416,0.97971 -0.66146,1.30239 0.11145,0.20824 0.20263,0.55102 0.20263,0.76174 0,0.38317 0.32436,0.52251 2.01675,0.86637 l 0.59935,0.12178 -0.0953,1.07493 c -0.14114,1.59199 -0.0992,1.5474 -1.45677,1.5474 -1.2007,0 -1.22075,0.009 -1.62667,0.69656 -0.44732,0.75816 -0.43621,0.81414 0.44496,2.24251 l 0.47237,0.76572 -0.96464,0.83091 -0.96463,0.83092 -0.86636,-0.9545 c -0.84939,-0.93582 -0.8793,-0.95043 -1.52781,-0.74619 -0.98989,0.31176 -1.07893,0.41121 -1.22194,1.36489 -0.19958,1.33093 -0.30866,1.49594 -0.95142,1.43936 z m 1.32485,-6.36432 c 1.87136,-0.7819 1.89661,-3.82249 0.0391,-4.70395 -0.83216,-0.39488 -1.3229,-0.39764 -2.13558,-0.012 -1.84302,0.87457 -1.86096,3.91095 -0.0278,4.70787 0.78788,0.34251 1.31909,0.34454 2.12433,0.008 z"
           style="fill:#000000;fill-opacity:1;stroke:none;stroke-width:0;stroke-linecap:round;stroke-linejoin:round;stroke-miterlimit:4;stroke-dasharray:none;stroke-opacity:1" />
        <path
           inkscape:connector-curvature="0"
           id="middleCog"
           d="m 115.29675,205.18705 c -1.68285,-0.14659 -1.60603,-0.0511 -1.60955,-2.00033 l -0.003,-1.74454 -1.10801,-0.59676 -1.10802,-0.59676 -1.39293,0.92701 c -0.76611,0.50986 -1.45305,0.92723 -1.52652,0.92749 -0.0735,1.9e-4 -0.61881,-0.60005 -1.21184,-1.33404 l -1.07825,-1.33452 1.26397,-1.27373 1.26396,-1.27372 -0.28836,-0.8173 c -0.1586,-0.44952 -0.28836,-0.96313 -0.28836,-1.14136 0,-0.25586 -0.36784,-0.40246 -1.74814,-0.69669 l -1.74814,-0.37265 0.0471,-1.21667 c 0.0259,-0.66917 0.093,-1.49002 0.14904,-1.82412 l 0.10196,-0.60746 1.79273,-0.054 1.79274,-0.054 0.55005,-0.96401 0.55004,-0.964 -0.93266,-1.45571 c -0.51297,-0.80064 -0.93267,-1.49001 -0.93267,-1.53194 0,-0.0419 0.60054,-0.56145 1.33452,-1.15448 l 1.33452,-1.07824 1.26407,1.25365 1.26406,1.25365 1.12601,-0.34879 c 0.61931,-0.19184 1.16519,-0.46579 1.21307,-0.60878 0.0479,-0.14299 0.22358,-0.89782 0.39043,-1.67739 l 0.30337,-1.41742 1.41288,0.0453 c 2.38874,0.0765 2.26332,-0.0356 2.26332,2.02301 v 1.77759 l 1.02926,0.55747 1.02925,0.55747 1.48956,-0.99727 1.48956,-0.99727 0.54243,0.69023 c 0.29833,0.37963 0.79707,1.01179 1.1083,1.40481 l 0.56589,0.71458 -1.25645,1.26979 -1.25644,1.2698 0.29343,0.94494 c 0.16139,0.51972 0.32112,1.04098 0.35497,1.15837 0.0338,0.11739 0.83955,0.3707 1.79047,0.56291 l 1.72894,0.34948 -0.13067,1.61046 c -0.0719,0.88574 -0.16795,1.67423 -0.21351,1.75219 -0.0456,0.078 -0.86448,0.14316 -1.81982,0.14489 l -1.73699,0.003 -0.59785,1.11002 -0.59785,1.11002 0.99281,1.48179 0.9928,1.48179 -1.40122,1.11851 -1.40123,1.11851 -1.27125,-1.2615 -1.27124,-1.2615 -0.8173,0.28836 c -0.44952,0.1586 -0.96769,0.28836 -1.1515,0.28836 -0.27243,0 -0.39671,0.33186 -0.67236,1.79539 l -0.33815,1.79538 -0.57956,-0.0318 c -0.31875,-0.0175 -0.91973,-0.0614 -1.3355,-0.0976 z m 2.92753,-8.7257 c 1.99764,-1.07135 2.53748,-3.78811 1.08209,-5.4457 -0.74021,-0.84306 -1.54598,-1.19633 -2.72788,-1.19594 -1.12466,3.7e-4 -2.03089,0.44975 -2.76836,1.37277 -1.03723,1.29821 -0.84933,3.62232 0.37983,4.69815 1.09573,0.95905 2.84802,1.20694 4.03432,0.57072 z"
           style="fill:#000000;fill-opacity:1;stroke:none;stroke-width:0;stroke-linecap:round;stroke-linejoin:round;stroke-miterlimit:4;stroke-dasharray:none;stroke-opacity:1" />
        <rect
           style="fill:red;fill-opacity:1;stroke:none;stroke-width:0;stroke-linecap:round;stroke-linejoin:round;stroke-miterlimit:4;stroke-dasharray:none;stroke-opacity:1"
           id="topLeftButton"
           width="6.8035712"
           height="6.8035712"
           x="10.583333"
           y="177.9375" />
        <rect
           style="fill:red;fill-opacity:1;stroke:none;stroke-width:0;stroke-linecap:round;stroke-linejoin:round;stroke-miterlimit:4;stroke-dasharray:none;stroke-opacity:1"
           id="topMiddleButton"
           width="6.8035712"
           height="6.8035712"
           x="25.929171"
           y="177.9375" />
        <rect
           y="177.9375"
           x="41.275017"
           height="6.8035712"
           width="6.8035712"
           id="topRightButton"
           style="fill:green;fill-opacity:1;stroke:none;stroke-width:0;stroke-linecap:round;stroke-linejoin:round;stroke-miterlimit:4;stroke-dasharray:none;stroke-opacity:1" />
        <rect
           y="191.69565"
           x="10.583333"
           height="6.8035712"
           width="6.8035712"
           id="middleLeftButton"
           style="fill:red;fill-opacity:1;stroke:none;stroke-width:0;stroke-linecap:round;stroke-linejoin:round;stroke-miterlimit:4;stroke-dasharray:none;stroke-opacity:1" />
        <rect
           y="191.69565"
           x="25.929171"
           height="6.8035712"
           width="6.8035712"
           id="middleMiddleButton"
           style="fill:green;fill-opacity:1;stroke:none;stroke-width:0;stroke-linecap:round;stroke-linejoin:round;stroke-miterlimit:4;stroke-dasharray:none;stroke-opacity:1" />
        <rect
           style="fill:red;fill-opacity:1;stroke:none;stroke-width:0;stroke-linecap:round;stroke-linejoin:round;stroke-miterlimit:4;stroke-dasharray:none;stroke-opacity:1"
           id="middleRightButton"
           width="6.8035712"
           height="6.8035712"
           x="41.275017"
           y="191.69565" />
        <rect
           style="fill:red;fill-opacity:1;stroke:none;stroke-width:0;stroke-linecap:round;stroke-linejoin:round;stroke-miterlimit:4;stroke-dasharray:none;stroke-opacity:1"
           id="bottomLeftButton"
           width="6.8035712"
           height="6.8035712"
           x="10.583333"
           y="205.4538" />
        <rect
           style="fill:red;fill-opacity:1;stroke:none;stroke-width:0;stroke-linecap:round;stroke-linejoin:round;stroke-miterlimit:4;stroke-dasharray:none;stroke-opacity:1"
           id="bottomMiddleButton"
           width="6.8035712"
           height="6.8035712"
           x="25.929171"
           y="205.4538" />
        <rect
           y="205.4538"
           x="41.275017"
           height="6.8035712"
           width="6.8035712"
           id="bottomRightButton"
           style="fill:green;fill-opacity:1;stroke:none;stroke-width:0;stroke-linecap:round;stroke-linejoin:round;stroke-miterlimit:4;stroke-dasharray:none;stroke-opacity:1" />
        <path
           style="display:inline;fill:#000000;fill-opacity:1;stroke:none;stroke-width:0;stroke-linecap:round;stroke-linejoin:round;stroke-miterlimit:4;stroke-dasharray:none;stroke-opacity:1"
           d="m 100.25818,284.89132 c -2.623629,-0.24328 -5.191307,-0.98912 -7.748508,-2.25068 -2.509387,-1.23796 -3.889059,-2.2107 -5.838433,-4.11636 -10.19681,-9.96828 -8.597508,-26.82179 3.296629,-34.74003 6.645844,-4.42432 14.992412,-4.99523 22.196562,-1.51825 11.37381,5.48941 15.9679,19.05073 10.28957,30.37382 -3.34106,6.66234 -10.23952,11.49111 -17.37662,12.16321 -2.44765,0.2305 -3.14726,0.24331 -4.8192,0.0883 z m 5.56138,-5.74778 c 5.08253,-1.06916 9.42538,-4.39362 11.73066,-8.97985 0.7655,-1.52292 1.51228,-3.72587 1.51228,-4.46112 V 265.25 h -2.64583 -2.64584 v -2.74031 -2.74034 h 2.64584 2.64583 v -0.45257 c 0,-1.14864 -1.63839,-5.1602 -2.57709,-6.30995 l -0.35223,-0.43143 -1.88649,1.89625 -1.8865,1.89624 -1.94058,-1.934 -1.94059,-1.93397 1.91543,-1.92199 1.91543,-1.92196 -0.73682,-0.46514 c -1.29787,-0.8193 -2.58124,-1.40493 -4.19033,-1.91209 -2.47536,-0.7802 -2.30535,-0.93887 -2.30535,2.15133 v 2.64583 h -2.74033 -2.740324 v -2.66686 -2.66687 l -0.649496,0.12184 c -1.726977,0.32398 -4.894504,1.66092 -5.938656,2.50658 l -0.446037,0.36124 1.816201,1.80737 c 0.998911,0.99406 1.816202,1.88452 1.816202,1.97879 0,0.0943 -0.850447,1.01864 -1.889881,2.0542 l -1.889881,1.88277 -1.897502,-1.88632 -1.897502,-1.88634 -0.374361,0.47246 c -0.821315,1.03656 -2.087543,4.09012 -2.527383,6.09486 l -0.114024,0.51973 h 2.743928 2.743927 v 2.74034 2.74031 h -2.743927 -2.743928 l 0.117772,0.51972 c 1.413478,6.23753 5.604553,10.95849 11.430683,12.87587 0.682772,0.22471 1.618262,0.48247 2.07887,0.57283 1.390859,0.27283 5.137279,0.23024 6.587829,-0.0749 z"
           id="minuteur"
           inkscape:connector-curvature="0" />
        <path
           style="display:inline;fill:#333333;fill-opacity:1;stroke:none;stroke-width:0;stroke-linecap:round;stroke-linejoin:round;stroke-miterlimit:4;stroke-dasharray:none;stroke-opacity:1"
           d="m 99.596726,262.52855 v -6.99256 h 2.740324 2.74033 v 6.99256 6.99257 h -2.74033 -2.740324 z"
           id="cursorMinuteur"
           inkscape:connector-curvature="0" />
      </g>
    </clipPath>
  </defs>
  <sodipodi:namedview
     id="base"
     pagecolor="#ffffff"
     bordercolor="#666666"
     borderopacity="1.0"
     inkscape:pageopacity="0.0"
     inkscape:pageshadow="2"
     inkscape:zoom="1.979899"
     inkscape:cx="127.19771"
     inkscape:cy="242.44008"
     inkscape:document-units="mm"
     inkscape:current-layer="g6416"
     showgrid="true"
     units="px"
     showguides="false"
     inkscape:snap-grids="false"
     inkscape:window-width="1920"
     inkscape:window-height="1017"
     inkscape:window-x="-8"
     inkscape:window-y="-8"
     inkscape:window-maximized="1">
    <inkscape:grid
       type="xygrid"
       id="grid5378" />
  </sodipodi:namedview>
  <metadata
     id="metadata5">
    <rdf:RDF>
      <cc:Work
         rdf:about="">
        <dc:format>image/svg+xml</dc:format>
        <dc:type
           rdf:resource="http://purl.org/dc/dcmitype/StillImage" />
        <dc:title />
      </cc:Work>
    </rdf:RDF>
  </metadata>
  <g
     inkscape:groupmode="layer"
     id="layer5"
     inkscape:label="Clip">
    <path
       transform="translate(0,-164.70833)"
       style="display:inline;fill:#000000;fill-opacity:1;stroke:none;stroke-width:0;stroke-linecap:round;stroke-linejoin:round;stroke-miterlimit:4;stroke-dasharray:none;stroke-opacity:1"
       d="M 46.491073,242.48588 V 240.596 h 7.258519 7.258525 v 1.88988 1.88988 h -7.258525 -7.258519 z"
       id="clipTop"
       inkscape:connector-curvature="0" />
    <path
       inkscape:connector-curvature="0"
       id="clipMiddle"
       d="M 22.822113,96.581865 V 94.78648 h 7.258519 7.258525 v 1.795385 1.795385 h -7.258525 -7.258519 z"
       style="display:inline;fill:#000000;fill-opacity:1;stroke:none;stroke-width:0;stroke-linecap:round;stroke-linejoin:round;stroke-miterlimit:4;stroke-dasharray:none;stroke-opacity:1"
       sodipodi:nodetypes="ccccccccc" />
    <path
       inkscape:connector-curvature="0"
       id="clipBottom"
       d="m 46.599575,114.63022 v -1.88987 h 7.181546 7.181551 v 1.88987 1.88989 h -7.181551 -7.181546 z"
       style="display:inline;fill:#000000;fill-opacity:1;stroke:none;stroke-width:0;stroke-linecap:round;stroke-linejoin:round;stroke-miterlimit:4;stroke-dasharray:none;stroke-opacity:1"
       sodipodi:nodetypes="ccccccccc" />
    <path
       transform="translate(0,-164.70833)"
       inkscape:connector-curvature="0"
       id="path6366"
       d="m 37.339157,261.2902 v -1.79539 H 53.68663 70.034099 v 1.79539 1.79538 H 53.68663 37.339157 Z"
       style="display:inline;fill:#000000;fill-opacity:1;stroke:none;stroke-width:0;stroke-linecap:round;stroke-linejoin:round;stroke-miterlimit:4;stroke-dasharray:none;stroke-opacity:1" />
    <path
       transform="translate(0,-164.70833)"
       inkscape:connector-curvature="0"
       id="path6372"
       d="M 60.962672,242.48588 V 240.596 h 4.535712 4.535715 v 1.88988 1.88988 h -4.535715 -4.535712 z"
       style="display:inline;fill:#000000;fill-opacity:1;stroke:none;stroke-width:0;stroke-linecap:round;stroke-linejoin:round;stroke-miterlimit:4;stroke-dasharray:none;stroke-opacity:1" />
      <path
         transform="translate(0,-164.70833)"
         inkscape:connector-curvature="0"
         id="path6374"
         d="M 13.715647,242.48588 V 240.596 h 16.441965 16.441963 v 1.88988 1.88988 H 30.157612 13.715647 Z"
         style="display:inline;fill:#000000;fill-opacity:1;stroke:none;stroke-width:0;stroke-linecap:round;stroke-linejoin:round;stroke-miterlimit:4;stroke-dasharray:none;stroke-opacity:1" />
      <path
         transform="translate(0,-164.70833)"
         inkscape:connector-curvature="0"
         id="path6376"
         d="m 13.715647,261.2902 v -1.79539 h 4.630209 4.630208 v 1.79539 1.79538 h -4.630208 -4.630209 z"
         style="display:inline;fill:#000000;fill-opacity:1;stroke:none;stroke-width:0;stroke-linecap:round;stroke-linejoin:round;stroke-miterlimit:4;stroke-dasharray:none;stroke-opacity:1" />

    <path
       transform="translate(0,-164.70833)"
       inkscape:connector-curvature="0"
       id="path6378"
       d="m 13.715647,279.33856 v -1.88988 h 16.441965 16.441963 v 1.88988 1.88988 H 30.157612 13.715647 Z"
       style="display:inline;fill:#000000;fill-opacity:1;stroke:none;stroke-width:0;stroke-linecap:round;stroke-linejoin:round;stroke-miterlimit:4;stroke-dasharray:none;stroke-opacity:1" />
    <path
       transform="translate(0,-164.70833)"
       inkscape:connector-curvature="0"
       id="path6382"
       d="m 60.962672,279.33856 v -1.88988 h 4.535712 4.535715 v 1.88988 1.88988 h -4.535715 -4.535712 z"
       style="display:inline;fill:#000000;fill-opacity:1;stroke:none;stroke-width:0;stroke-linecap:round;stroke-linejoin:round;stroke-miterlimit:4;stroke-dasharray:none;stroke-opacity:1" />
     
  </g>
  <g
     inkscape:groupmode="layer"
     id="layer4"
     inkscape:label="Background"
     style="display:none">
    <rect
       style="fill-opacity:1;stroke:none;stroke-width:0;stroke-linecap:round;stroke-linejoin:round;stroke-miterlimit:4;stroke-dasharray:none;stroke-opacity:1"
       id="rect5301"
       width="130.2128"
       height="130.2128"
       x="1.1339285"
       y="1.3229165" />
  </g>
  <g
     inkscape:label="Calque 1"
     inkscape:groupmode="layer"
     id="g6416"
     transform="translate(0,-164.70833)"
     style="display:inline">
    <path
           inkscape:connector-curvature="0"
           id="middleRightTrait"
           d="m 37.339157,261.2902 v -1.79539 H 53.68663 70.034099 v 1.79539 1.79538 H 53.68663 37.339157 Z"
           style="fill:#000000;fill-opacity:1;stroke:none;stroke-width:0;stroke-linecap:round;stroke-linejoin:round;stroke-miterlimit:4;stroke-dasharray:none;stroke-opacity:1" />
        <path
           inkscape:connector-curvature="0"
           id="middleCursor"
           d="m 28.645706,270.73269 c -1.073605,-0.33336 -2.169961,-1.23366 -2.651317,-2.1772 -0.349406,-0.68489 -0.372492,-1.13518 -0.372492,-7.26529 0,-6.13012 0.02309,-6.5804 0.372492,-7.26529 0.687006,-1.34665 2.578226,-2.4676 4.163223,-2.4676 0.979863,0 2.481588,0.5903 3.236293,1.27213 1.43346,1.29505 1.393915,1.05501 1.393915,8.46076 0,7.40574 0.03955,7.16571 -1.393915,8.46075 -0.788059,0.71196 -2.291043,1.28228 -3.317843,1.25897 -0.31895,-0.007 -0.96261,-0.132 -1.430356,-0.27723 z"
           style="fill:#000000;fill-opacity:1;stroke:none;stroke-width:0;stroke-linecap:round;stroke-linejoin:round;stroke-miterlimit:4;stroke-dasharray:none;stroke-opacity:1" />
        <path
           inkscape:connector-curvature="0"
           id="topCursor"
           d="m 52.009831,251.84681 c -1.004309,-0.358 -1.999809,-1.20315 -2.467637,-2.09496 -0.368885,-0.70319 -0.394404,-1.10012 -0.445863,-6.93505 -0.03682,-4.17529 0.01503,-6.45058 0.159354,-6.99256 0.273036,-1.02534 1.672709,-2.42034 2.75328,-2.74408 1.134182,-0.33981 2.86929,-0.28401 3.760727,0.12094 0.933572,0.42409 1.947987,1.41306 2.290662,2.23319 0.198956,0.47618 0.256484,2.0581 0.256484,7.05305 0,5.96526 -0.02654,6.4908 -0.360669,7.14037 -1.050298,2.04189 -3.685059,3.02515 -5.946338,2.2191 z"
           style="fill:#000000;fill-opacity:1;stroke:none;stroke-width:0;stroke-linecap:round;stroke-linejoin:round;stroke-miterlimit:4;stroke-dasharray:none;stroke-opacity:1" />
        <path
           inkscape:connector-curvature="0"
           id="topRightTrait                                                                                                                                            "
           d="M 60.962672,242.48588 V 240.596 h 4.535712 4.535715 v 1.88988 1.88988 h -4.535715 -4.535712 z"
           style="fill:#000000;fill-opacity:1;stroke:none;stroke-width:0;stroke-linecap:round;stroke-linejoin:round;stroke-miterlimit:4;stroke-dasharray:none;stroke-opacity:1" />
        <path
           inkscape:connector-curvature="0"
           id="topLeftTrait"
           d="M 13.715647,242.48588 V 240.596 h 16.441965 16.441963 v 1.88988 1.88988 H 30.157612 13.715647 Z"
           style="fill:#000000;fill-opacity:1;stroke:none;stroke-width:0;stroke-linecap:round;stroke-linejoin:round;stroke-miterlimit:4;stroke-dasharray:none;stroke-opacity:1" />
        <path
           inkscape:connector-curvature="0"
           id="middleLeftTrait"
           d="m 13.715647,261.2902 v -1.79539 h 4.630209 4.630208 v 1.79539 1.79538 h -4.630208 -4.630209 z"
           style="fill:#000000;fill-opacity:1;stroke:none;stroke-width:0;stroke-linecap:round;stroke-linejoin:round;stroke-miterlimit:4;stroke-dasharray:none;stroke-opacity:1" />
        <path
           inkscape:connector-curvature="0"
           id="bottomCursor"
           d="m 51.897219,288.72949 c -0.945412,-0.30125 -2.380745,-1.76384 -2.631885,-2.68185 -0.287803,-1.05204 -0.282514,-12.48047 0.0062,-13.34271 1.02248,-3.05389 5.450385,-4.03742 7.819239,-1.73682 1.219486,1.18435 1.22609,1.22942 1.22609,8.37045 0,4.99372 -0.05753,6.57543 -0.256485,7.05159 -0.342675,0.82013 -1.35709,1.8091 -2.290662,2.23319 -0.861777,0.39148 -2.809507,0.44487 -3.872473,0.10615 z"
           style="fill:#000000;fill-opacity:1;stroke:none;stroke-width:0;stroke-linecap:round;stroke-linejoin:round;stroke-miterlimit:4;stroke-dasharray:none;stroke-opacity:1" />
        <clipPath
           id="bottomTraitClip">
          <path
             inkscape:connector-curvature="0"
             id="bottomLeftTrait"
             d="m 13.715647,279.33856 v -1.88988 h 16.441965 16.441963 v 1.88988 1.88988 H 30.157612 13.715647 Z"
             style="fill:#000000;fill-opacity:1;stroke:none;stroke-width:0;stroke-linecap:round;stroke-linejoin:round;stroke-miterlimit:4;stroke-dasharray:none;stroke-opacity:1" />
          <path
             inkscape:connector-curvature="0"
             id="bottomRightTrait"
             d="m 60.962672,279.33856 v -1.88988 h 4.535712 4.535715 v 1.88988 1.88988 h -4.535715 -4.535712 z"
             style="fill:#000000;fill-opacity:1;stroke:none;stroke-width:0;stroke-linecap:round;stroke-linejoin:round;stroke-miterlimit:4;stroke-dasharray:none;stroke-opacity:1" />
        </clipPath>
        <rect
           y="177.9375"
           x="74.272324"
           height="55.373516"
           width="55.373516"
           id="windowCog"
           style="fill:#ececec;fill-opacity:1;stroke:none;stroke-width:0;stroke-linecap:round;stroke-linejoin:round;stroke-miterlimit:4;stroke-dasharray:none;stroke-opacity:1" />
        <path
           inkscape:connector-curvature="0"
           id="bigCog"
           d="m 89.817419,221.90014 c -0.06186,-0.5457 -0.169241,-1.63913 -0.238628,-2.42983 l -0.126158,-1.43765 -1.25205,-0.51148 c -0.688627,-0.28132 -1.384124,-0.55415 -1.545549,-0.60628 -0.179109,-0.0579 -1.021006,0.50302 -2.160118,1.43906 l -1.866618,1.53387 -1.754282,-1.74699 c -1.477121,-1.47098 -1.71824,-1.79348 -1.526151,-2.04127 0.125472,-0.16186 0.816792,-1.00779 1.536267,-1.87985 1.280035,-1.55151 1.302962,-1.59819 1.067324,-2.17337 -0.132447,-0.32329 -0.409702,-1.02328 -0.616124,-1.55552 l -0.375312,-0.96773 -1.446964,-0.127 c -0.795829,-0.0699 -1.893447,-0.17761 -2.43915,-0.23947 l -0.992188,-0.11247 v -2.49815 -2.49814 l 1.559152,-0.12575 c 0.857533,-0.0692 1.950162,-0.17567 2.428063,-0.23669 l 0.868911,-0.11094 0.612704,-1.49855 0.612704,-1.49856 -0.463257,-0.60703 c -0.254791,-0.33387 -0.946758,-1.19676 -1.537704,-1.91752 l -1.074447,-1.31049 1.747964,-1.75526 c 1.502674,-1.50895 1.789011,-1.72069 2.040464,-1.50887 3.090876,2.6037 3.535046,2.91251 3.89529,2.70823 0.201278,-0.11414 0.876227,-0.39268 1.499888,-0.61899 l 1.133928,-0.41146 0.263951,-2.4793 0.263951,-2.4793 h 2.492483 2.492487 l 0.232272,2.4096 c 0.127751,1.32528 0.290595,2.45932 0.361868,2.5201 0.07128,0.0608 0.554818,0.26239 1.074536,0.44802 0.519719,0.18563 1.128954,0.45197 1.353855,0.59187 0.374954,0.23324 0.508902,0.17248 1.612818,-0.7315 0.662151,-0.54222 1.547531,-1.25758 1.967511,-1.58968 l 0.76362,-0.60382 1.73454,1.74178 1.73454,1.74178 -1.51239,1.85784 c -0.83181,1.0218 -1.51207,1.91296 -1.51169,1.98034 2.7e-4,0.0674 0.24857,0.76035 0.55154,1.53992 l 0.55083,1.41741 1.66908,0.22177 c 0.91799,0.12198 2.03052,0.22828 2.47228,0.23624 l 0.8032,0.0145 v 2.55134 2.55134 l -0.51972,0.0178 c -0.28584,0.01 -1.39837,0.11607 -2.47229,0.23623 l -1.95258,0.21847 -0.34634,0.94494 c -0.19048,0.51972 -0.45386,1.2122 -0.58528,1.53884 -0.23373,0.58095 -0.21079,0.62832 1.05284,2.17336 0.71049,0.86871 1.40365,1.71109 1.54037,1.87197 0.21424,0.25209 0.006,0.53423 -1.50881,2.04258 l -1.75739,1.75008 -1.87532,-1.53023 c -1.077552,-0.87926 -1.995929,-1.49298 -2.158814,-1.44265 -0.272587,0.0842 -2.704629,1.0778 -2.774307,1.13342 -0.01868,0.0149 -0.139007,1.11032 -0.267375,2.43423 l -0.233394,2.40712 h -2.494182 -2.49418 z m 4.748324,-11.02561 c 3.56985,-1.77893 3.538132,-6.74449 -0.05521,-8.64254 -1.02244,-0.54006 -3.087907,-0.55833 -4.152093,-0.0367 -2.76337,1.35446 -3.603865,4.87649 -1.745243,7.3133 1.368584,1.79434 3.918623,2.37951 5.952544,1.36596 z"
           style="fill:#000000;fill-opacity:1;stroke:none;stroke-width:0;stroke-linecap:round;stroke-linejoin:round;stroke-miterlimit:4;stroke-dasharray:none;stroke-opacity:1" />
        <path
           inkscape:connector-curvature="0"
           id="smallCog"
           d="m 114.35181,225.77174 c -0.31183,-0.0274 -0.84336,-0.0951 -1.18118,-0.1503 l -0.61421,-0.1004 v -1.31052 -1.31051 l -0.77895,-0.39739 -0.77895,-0.39739 -1.02519,0.70608 c -0.57548,0.39634 -1.0895,0.63116 -1.1718,0.53529 -0.0806,-0.0939 -0.42888,-0.53837 -0.77389,-0.98764 l -0.62729,-0.81685 0.89232,-0.90595 0.89232,-0.90594 -0.24221,-0.82854 c -0.28736,-0.98298 -0.3573,-1.0411 -1.44997,-1.20495 -1.18804,-0.17816 -1.31348,-0.25054 -1.24739,-0.71974 0.0322,-0.22867 0.11078,-0.82584 0.17459,-1.32704 l 0.11602,-0.91128 1.20698,0.12926 1.20697,0.12926 0.4193,-0.86305 0.4193,-0.86305 -0.67129,-1.08138 -0.67128,-1.08138 0.96852,-0.83093 0.96853,-0.83094 0.85343,0.96241 0.85343,0.96241 0.89471,-0.30486 c 0.49209,-0.16767 0.89471,-0.42024 0.89471,-0.56127 0,-0.14103 0.0921,-0.68583 0.20465,-1.21066 0.19551,-0.91165 0.23241,-0.95424 0.82682,-0.95424 0.3422,0 0.88794,0.0531 1.21276,0.11812 l 0.59059,0.11811 v 1.30175 1.30175 l 0.83277,0.40459 0.83277,0.40459 0.97513,-0.71581 c 0.53632,-0.3937 1.03941,-0.64065 1.11798,-0.54879 0.48726,0.56974 1.34403,1.75285 1.34403,1.85597 0,0.0675 -0.38884,0.53834 -0.86409,1.04642 -0.73644,0.78731 -0.83416,0.97971 -0.66146,1.30239 0.11145,0.20824 0.20263,0.55102 0.20263,0.76174 0,0.38317 0.32436,0.52251 2.01675,0.86637 l 0.59935,0.12178 -0.0953,1.07493 c -0.14114,1.59199 -0.0992,1.5474 -1.45677,1.5474 -1.2007,0 -1.22075,0.009 -1.62667,0.69656 -0.44732,0.75816 -0.43621,0.81414 0.44496,2.24251 l 0.47237,0.76572 -0.96464,0.83091 -0.96463,0.83092 -0.86636,-0.9545 c -0.84939,-0.93582 -0.8793,-0.95043 -1.52781,-0.74619 -0.98989,0.31176 -1.07893,0.41121 -1.22194,1.36489 -0.19958,1.33093 -0.30866,1.49594 -0.95142,1.43936 z m 1.32485,-6.36432 c 1.87136,-0.7819 1.89661,-3.82249 0.0391,-4.70395 -0.83216,-0.39488 -1.3229,-0.39764 -2.13558,-0.012 -1.84302,0.87457 -1.86096,3.91095 -0.0278,4.70787 0.78788,0.34251 1.31909,0.34454 2.12433,0.008 z"
           style="fill:#000000;fill-opacity:1;stroke:none;stroke-width:0;stroke-linecap:round;stroke-linejoin:round;stroke-miterlimit:4;stroke-dasharray:none;stroke-opacity:1" />
        <path
           inkscape:connector-curvature="0"
           id="middleCog"
           d="m 115.29675,205.18705 c -1.68285,-0.14659 -1.60603,-0.0511 -1.60955,-2.00033 l -0.003,-1.74454 -1.10801,-0.59676 -1.10802,-0.59676 -1.39293,0.92701 c -0.76611,0.50986 -1.45305,0.92723 -1.52652,0.92749 -0.0735,1.9e-4 -0.61881,-0.60005 -1.21184,-1.33404 l -1.07825,-1.33452 1.26397,-1.27373 1.26396,-1.27372 -0.28836,-0.8173 c -0.1586,-0.44952 -0.28836,-0.96313 -0.28836,-1.14136 0,-0.25586 -0.36784,-0.40246 -1.74814,-0.69669 l -1.74814,-0.37265 0.0471,-1.21667 c 0.0259,-0.66917 0.093,-1.49002 0.14904,-1.82412 l 0.10196,-0.60746 1.79273,-0.054 1.79274,-0.054 0.55005,-0.96401 0.55004,-0.964 -0.93266,-1.45571 c -0.51297,-0.80064 -0.93267,-1.49001 -0.93267,-1.53194 0,-0.0419 0.60054,-0.56145 1.33452,-1.15448 l 1.33452,-1.07824 1.26407,1.25365 1.26406,1.25365 1.12601,-0.34879 c 0.61931,-0.19184 1.16519,-0.46579 1.21307,-0.60878 0.0479,-0.14299 0.22358,-0.89782 0.39043,-1.67739 l 0.30337,-1.41742 1.41288,0.0453 c 2.38874,0.0765 2.26332,-0.0356 2.26332,2.02301 v 1.77759 l 1.02926,0.55747 1.02925,0.55747 1.48956,-0.99727 1.48956,-0.99727 0.54243,0.69023 c 0.29833,0.37963 0.79707,1.01179 1.1083,1.40481 l 0.56589,0.71458 -1.25645,1.26979 -1.25644,1.2698 0.29343,0.94494 c 0.16139,0.51972 0.32112,1.04098 0.35497,1.15837 0.0338,0.11739 0.83955,0.3707 1.79047,0.56291 l 1.72894,0.34948 -0.13067,1.61046 c -0.0719,0.88574 -0.16795,1.67423 -0.21351,1.75219 -0.0456,0.078 -0.86448,0.14316 -1.81982,0.14489 l -1.73699,0.003 -0.59785,1.11002 -0.59785,1.11002 0.99281,1.48179 0.9928,1.48179 -1.40122,1.11851 -1.40123,1.11851 -1.27125,-1.2615 -1.27124,-1.2615 -0.8173,0.28836 c -0.44952,0.1586 -0.96769,0.28836 -1.1515,0.28836 -0.27243,0 -0.39671,0.33186 -0.67236,1.79539 l -0.33815,1.79538 -0.57956,-0.0318 c -0.31875,-0.0175 -0.91973,-0.0614 -1.3355,-0.0976 z m 2.92753,-8.7257 c 1.99764,-1.07135 2.53748,-3.78811 1.08209,-5.4457 -0.74021,-0.84306 -1.54598,-1.19633 -2.72788,-1.19594 -1.12466,3.7e-4 -2.03089,0.44975 -2.76836,1.37277 -1.03723,1.29821 -0.84933,3.62232 0.37983,4.69815 1.09573,0.95905 2.84802,1.20694 4.03432,0.57072 z"
           style="fill:#000000;fill-opacity:1;stroke:none;stroke-width:0;stroke-linecap:round;stroke-linejoin:round;stroke-miterlimit:4;stroke-dasharray:none;stroke-opacity:1" />
        <rect
           style="fill:red;fill-opacity:1;stroke:none;stroke-width:0;stroke-linecap:round;stroke-linejoin:round;stroke-miterlimit:4;stroke-dasharray:none;stroke-opacity:1"
           id="topLeftButton"
           width="6.8035712"
           height="6.8035712"
           x="10.583333"
           y="177.9375" />
        <rect
           style="fill:red;fill-opacity:1;stroke:none;stroke-width:0;stroke-linecap:round;stroke-linejoin:round;stroke-miterlimit:4;stroke-dasharray:none;stroke-opacity:1"
           id="topMiddleButton"
           width="6.8035712"
           height="6.8035712"
           x="25.929171"
           y="177.9375" />
        <rect
           y="177.9375"
           x="41.275017"
           height="6.8035712"
           width="6.8035712"
           id="topRightButton"
           style="fill:green;fill-opacity:1;stroke:none;stroke-width:0;stroke-linecap:round;stroke-linejoin:round;stroke-miterlimit:4;stroke-dasharray:none;stroke-opacity:1" />
        <rect
           y="191.69565"
           x="10.583333"
           height="6.8035712"
           width="6.8035712"
           id="middleLeftButton"
           style="fill:red;fill-opacity:1;stroke:none;stroke-width:0;stroke-linecap:round;stroke-linejoin:round;stroke-miterlimit:4;stroke-dasharray:none;stroke-opacity:1" />
        <rect
           y="191.69565"
           x="25.929171"
           height="6.8035712"
           width="6.8035712"
           id="middleMiddleButton"
           style="fill:green;fill-opacity:1;stroke:none;stroke-width:0;stroke-linecap:round;stroke-linejoin:round;stroke-miterlimit:4;stroke-dasharray:none;stroke-opacity:1" />
        <rect
           style="fill:red;fill-opacity:1;stroke:none;stroke-width:0;stroke-linecap:round;stroke-linejoin:round;stroke-miterlimit:4;stroke-dasharray:none;stroke-opacity:1"
           id="middleRightButton"
           width="6.8035712"
           height="6.8035712"
           x="41.275017"
           y="191.69565" />
        <rect
           style="fill:red;fill-opacity:1;stroke:none;stroke-width:0;stroke-linecap:round;stroke-linejoin:round;stroke-miterlimit:4;stroke-dasharray:none;stroke-opacity:1"
           id="bottomLeftButton"
           width="6.8035712"
           height="6.8035712"
           x="10.583333"
           y="205.4538" />
        <rect
           style="fill:red;fill-opacity:1;stroke:none;stroke-width:0;stroke-linecap:round;stroke-linejoin:round;stroke-miterlimit:4;stroke-dasharray:none;stroke-opacity:1"
           id="bottomMiddleButton"
           width="6.8035712"
           height="6.8035712"
           x="25.929171"
           y="205.4538" />
        <rect
           y="205.4538"
           x="41.275017"
           height="6.8035712"
           width="6.8035712"
           id="bottomRightButton"
           style="fill:green;fill-opacity:1;stroke:none;stroke-width:0;stroke-linecap:round;stroke-linejoin:round;stroke-miterlimit:4;stroke-dasharray:none;stroke-opacity:1" />
        <path
           style="display:inline;fill:#000000;fill-opacity:1;stroke:none;stroke-width:0;stroke-linecap:round;stroke-linejoin:round;stroke-miterlimit:4;stroke-dasharray:none;stroke-opacity:1"
           d="m 100.25818,284.89132 c -2.623629,-0.24328 -5.191307,-0.98912 -7.748508,-2.25068 -2.509387,-1.23796 -3.889059,-2.2107 -5.838433,-4.11636 -10.19681,-9.96828 -8.597508,-26.82179 3.296629,-34.74003 6.645844,-4.42432 14.992412,-4.99523 22.196562,-1.51825 11.37381,5.48941 15.9679,19.05073 10.28957,30.37382 -3.34106,6.66234 -10.23952,11.49111 -17.37662,12.16321 -2.44765,0.2305 -3.14726,0.24331 -4.8192,0.0883 z m 5.56138,-5.74778 c 5.08253,-1.06916 9.42538,-4.39362 11.73066,-8.97985 0.7655,-1.52292 1.51228,-3.72587 1.51228,-4.46112 V 265.25 h -2.64583 -2.64584 v -2.74031 -2.74034 h 2.64584 2.64583 v -0.45257 c 0,-1.14864 -1.63839,-5.1602 -2.57709,-6.30995 l -0.35223,-0.43143 -1.88649,1.89625 -1.8865,1.89624 -1.94058,-1.934 -1.94059,-1.93397 1.91543,-1.92199 1.91543,-1.92196 -0.73682,-0.46514 c -1.29787,-0.8193 -2.58124,-1.40493 -4.19033,-1.91209 -2.47536,-0.7802 -2.30535,-0.93887 -2.30535,2.15133 v 2.64583 h -2.74033 -2.740324 v -2.66686 -2.66687 l -0.649496,0.12184 c -1.726977,0.32398 -4.894504,1.66092 -5.938656,2.50658 l -0.446037,0.36124 1.816201,1.80737 c 0.998911,0.99406 1.816202,1.88452 1.816202,1.97879 0,0.0943 -0.850447,1.01864 -1.889881,2.0542 l -1.889881,1.88277 -1.897502,-1.88632 -1.897502,-1.88634 -0.374361,0.47246 c -0.821315,1.03656 -2.087543,4.09012 -2.527383,6.09486 l -0.114024,0.51973 h 2.743928 2.743927 v 2.74034 2.74031 h -2.743927 -2.743928 l 0.117772,0.51972 c 1.413478,6.23753 5.604553,10.95849 11.430683,12.87587 0.682772,0.22471 1.618262,0.48247 2.07887,0.57283 1.390859,0.27283 5.137279,0.23024 6.587829,-0.0749 z"
           id="minuteur"
           inkscape:connector-curvature="0" />
        <path
           style="display:inline;fill:#333333;fill-opacity:1;stroke:none;stroke-width:0;stroke-linecap:round;stroke-linejoin:round;stroke-miterlimit:4;stroke-dasharray:none;stroke-opacity:1"
           d="m 99.596726,262.52855 v -6.99256 h 2.740324 2.74033 v 6.99256 6.99257 h -2.74033 -2.740324 z"
           id="cursorMinuteur"
           inkscape:connector-curvature="0" />
    
  </g>
</svg>
